<svg width="20" height="20" viewBox="0 0 20 20" fill="none" xmlns="http://www.w3.org/2000/svg">
  <path d="M2 2L18 18" stroke="#6C7278" stroke-width="1.5" stroke-linecap="round"/>
  <path d="M9.5 5.5C9.66 5.5 9.83 5.5 10 5.5C13.5 5.5 16.5 8 17.5 10C17.2 10.6 16.8 11.2 16.3 11.7M6.5 6.5C4.5 7.5 3 9 2.5 10C3.5 12 6.5 14.5 10 14.5C11 14.5 12 14.3 12.9 13.9" stroke="#6C7278" stroke-width="1.5" stroke-linecap="round" stroke-linejoin="round"/>
  <path d="M8.5 11.5C8 11 7.7 10.3 7.7 9.5C7.7 8.1 8.8 7 10.2 7C11 7 11.7 7.3 12.2 7.8" stroke="#6C7278" stroke-width="1.5" stroke-linecap="round" stroke-linejoin="round"/>
</svg>