<svg width="18" height="18" viewBox="0 0 18 18" fill="none" xmlns="http://www.w3.org/2000/svg">
  <path fill-rule="evenodd" clip-rule="evenodd" d="M9 0C4.03 0 0 4.03 0 9c0 3.98 2.58 7.35 6.16 8.54.45.08.62-.19.62-.43v-1.54c-2.51.55-3.04-1.08-3.04-1.08-.41-1.04-1-1.32-1-1.32-.82-.56.06-.55.06-.55.91.06 1.39.93 1.39.93.8 1.38 2.11.98 2.62.75.08-.58.31-.98.57-1.2-2-.23-4.1-1-4.1-4.45 0-.98.35-1.79.93-2.42-.09-.23-.4-1.14.09-2.38 0 0 .76-.24 2.48.92a8.6 8.6 0 0 1 2.26-.3c.77 0 1.54.1 2.26.3 1.72-1.16 2.48-.92 2.48-.92.49 1.24.18 2.15.09 2.38.58.63.93 1.44.93 2.42 0 3.46-2.11 4.22-4.11 4.44.32.28.61.83.61 1.67v2.47c0 .24.17.52.62.43C15.42 16.35 18 12.98 18 9c0-4.97-4.03-9-9-9z" fill="#1B1F23"/>
</svg>