<svg width="28" height="28" viewBox="0 0 28 28" fill="none" xmlns="http://www.w3.org/2000/svg">
  <path d="M4 12L14 4L24 12V23C24 23.5304 23.7893 24.0391 23.4142 24.4142C23.0391 24.7893 22.5304 25 22 25H6C5.46957 25 4.96086 24.7893 4.58579 24.4142C4.21071 24.0391 4 23.5304 4 23V12Z" fill="#1A1C1E"/>
  <path d="M10 25V16C10 15.4696 10.2107 14.9609 10.5858 14.5858C10.9609 14.2107 11.4696 14 12 14H16C16.5304 14 17.0391 14.2107 17.4142 14.5858C17.7893 14.9609 18 15.4696 18 16V25" fill="white"/>
  <rect x="11" y="18" width="2" height="3" fill="#1A1C1E"/>
  <rect x="15" y="18" width="2" height="3" fill="#1A1C1E"/>
</svg>
